<svg xmlns="http://www.w3.org/2000/svg" xmlns:xlink="http://www.w3.org/1999/xlink" version="1.1" width="256" height="256" viewBox="0 0 256 256" xml:space="preserve">

<defs>
</defs>
<g style="stroke: none; stroke-width: 0; stroke-dasharray: none; stroke-linecap: butt; stroke-linejoin: miter; stroke-miterlimit: 10; fill: none; fill-rule: nonzero; opacity: 1;" transform="translate(1.4065934065934016 1.4065934065934016) scale(2.81 2.81)" >
	<path d="M 30.791 83.236 c -0.552 0 -1 -0.447 -1 -1 V 26.265 c 0 -0.552 0.448 -1 1 -1 s 1 0.448 1 1 v 55.971 C 31.791 82.789 31.343 83.236 30.791 83.236 z" style="stroke: none; stroke-width: 1; stroke-dasharray: none; stroke-linecap: butt; stroke-linejoin: miter; stroke-miterlimit: 10; fill: rgb(0,0,0); fill-rule: nonzero; opacity: 1;" transform=" matrix(1 0 0 1 0 0) " stroke-linecap="round" />
	<path d="M 14.215 90 c -0.552 0 -1 -0.447 -1 -1 V 26.265 c 0 -0.552 0.448 -1 1 -1 s 1 0.448 1 1 V 89 C 15.215 89.553 14.767 90 14.215 90 z" style="stroke: none; stroke-width: 1; stroke-dasharray: none; stroke-linecap: butt; stroke-linejoin: miter; stroke-miterlimit: 10; fill: rgb(0,0,0); fill-rule: nonzero; opacity: 1;" transform=" matrix(1 0 0 1 0 0) " stroke-linecap="round" />
	<path d="M 22.548 55.671 c -0.552 0 -1 -0.447 -1 -1 V 26.265 c 0 -0.552 0.448 -1 1 -1 s 1 0.448 1 1 v 28.406 C 23.548 55.224 23.1 55.671 22.548 55.671 z" style="stroke: none; stroke-width: 1; stroke-dasharray: none; stroke-linecap: butt; stroke-linejoin: miter; stroke-miterlimit: 10; fill: rgb(0,0,0); fill-rule: nonzero; opacity: 1;" transform=" matrix(1 0 0 1 0 0) " stroke-linecap="round" />
	<path d="M 22.548 79.717 c -0.552 0 -1 -0.447 -1 -1 V 64.688 c 0 -0.553 0.448 -1 1 -1 s 1 0.447 1 1 v 14.029 C 23.548 79.27 23.1 79.717 22.548 79.717 z" style="stroke: none; stroke-width: 1; stroke-dasharray: none; stroke-linecap: butt; stroke-linejoin: miter; stroke-miterlimit: 10; fill: rgb(0,0,0); fill-rule: nonzero; opacity: 1;" transform=" matrix(1 0 0 1 0 0) " stroke-linecap="round" />
	<path d="M 30.791 18.068 H 14.215 c -0.552 0 -1 -0.448 -1 -1 V 10.52 c 0 -0.552 0.448 -1 1 -1 h 16.576 c 0.552 0 1 0.448 1 1 v 6.548 C 31.791 17.62 31.343 18.068 30.791 18.068 z M 15.215 16.068 h 14.576 V 11.52 H 15.215 V 16.068 z" style="stroke: none; stroke-width: 1; stroke-dasharray: none; stroke-linecap: butt; stroke-linejoin: miter; stroke-miterlimit: 10; fill: rgb(0,0,0); fill-rule: nonzero; opacity: 1;" transform=" matrix(1 0 0 1 0 0) " stroke-linecap="round" />
	<path d="M 69.031 53.772 H 58.705 c -0.553 0 -1 -0.447 -1 -1 V 11.216 H 9.381 c -0.552 0 -1 -0.448 -1 -1 V 1 c 0 -0.552 0.448 -1 1 -1 h 59.65 c 0.553 0 1 0.448 1 1 v 51.772 C 70.031 53.325 69.584 53.772 69.031 53.772 z M 59.705 51.772 h 8.326 V 2 h -57.65 v 7.216 h 48.324 c 0.553 0 1 0.448 1 1 V 51.772 z" style="stroke: none; stroke-width: 1; stroke-dasharray: none; stroke-linecap: butt; stroke-linejoin: miter; stroke-miterlimit: 10; fill: rgb(0,0,0); fill-rule: nonzero; opacity: 1;" transform=" matrix(1 0 0 1 0 0) " stroke-linecap="round" />
	<path d="M 80.618 63.893 H 46.541 c -0.552 0 -1 -0.447 -1 -1 v -10.12 c 0 -0.553 0.448 -1 1 -1 h 34.077 c 0.553 0 1 0.447 1 1 v 10.12 C 81.618 63.445 81.171 63.893 80.618 63.893 z M 47.541 61.893 h 32.077 v -8.12 H 47.541 V 61.893 z" style="stroke: none; stroke-width: 1; stroke-dasharray: none; stroke-linecap: butt; stroke-linejoin: miter; stroke-miterlimit: 10; fill: rgb(0,0,0); fill-rule: nonzero; opacity: 1;" transform=" matrix(1 0 0 1 0 0) " stroke-linecap="round" />
</g>
</svg>